<svg xmlns="http://www.w3.org/2000/svg" viewBox="0 0 64 64" width="64" height="64">
  <!-- Elegant A-line dress -->
  <path d="M26 8 L24 10 L22 18 L19 20 L16 18 L14 20 L19 26 L17 32 L10 54 C9 57 11 60 14 60 L50 60 C53 60 55 57 54 54 L47 32 L45 26 L50 20 L48 18 L45 20 L42 18 L40 10 L38 8 Z" fill="#DC2626"/>
  <!-- V-neckline -->
  <path d="M26 8 L32 16 L38 8" fill="#1a1a1a" stroke="#991B1B" stroke-width="0.5"/>
  <!-- Belt -->
  <rect x="19" y="26" width="26" height="2.5" rx="1" fill="#991B1B"/>
  <!-- Belt buckle -->
  <rect x="29" y="25.5" width="6" height="3.5" rx="0.5" fill="#FFD700" stroke="#B8860B" stroke-width="0.5"/>
</svg>
