<svg xmlns="http://www.w3.org/2000/svg" viewBox="0 0 64 64" width="64" height="64">
  <!-- Long flowing gown - glamorous -->
  <defs>
    <linearGradient id="g" x1="0" y1="0" x2="0" y2="1">
      <stop offset="0%" stop-color="#F87171"/>
      <stop offset="50%" stop-color="#DC2626"/>
      <stop offset="100%" stop-color="#7F1D1D"/>
    </linearGradient>
  </defs>
  <!-- Off-shoulder top -->
  <path d="M18 14 Q22 10 26 12 L32 16 L38 12 Q42 10 46 14 L44 20 L42 24 L22 24 L20 20 Z" fill="url(#g)"/>
  <!-- Fitted bodice -->
  <path d="M22 24 L24 34 L40 34 L42 24 Z" fill="#DC2626"/>
  <!-- Flowing skirt -->
  <path d="M24 34 L16 58 Q14 62 20 62 L44 62 Q50 62 48 58 L40 34 Z" fill="url(#g)"/>
  <!-- Skirt drape -->
  <path d="M28 34 Q26 48 22 60" fill="none" stroke="#B91C1C" stroke-width="0.7" opacity="0.6"/>
  <path d="M36 34 Q38 48 42 60" fill="none" stroke="#B91C1C" stroke-width="0.7" opacity="0.6"/>
  <!-- Sparkle accents -->
  <circle cx="30" cy="28" r="0.8" fill="#FFF" opacity="0.7"/>
  <circle cx="34" cy="30" r="0.6" fill="#FFF" opacity="0.5"/>
  <circle cx="32" cy="26" r="0.7" fill="#FFF" opacity="0.6"/>
</svg>
