<svg xmlns="http://www.w3.org/2000/svg" viewBox="0 0 64 64" width="64" height="64">
  <!-- Cocktail dress on hanger -->
  <path d="M22 6 L32 2 L42 6" fill="none" stroke="#FFD700" stroke-width="2.5" stroke-linecap="round"/>
  <line x1="32" y1="2" x2="32" y2="8" stroke="#FFD700" stroke-width="2"/>
  <!-- Dress body -->
  <path d="M24 8 L22 12 L20 16 Q18 18 20 20 L22 22 L20 26 L14 50 Q12 56 18 58 L46 58 Q52 56 50 50 L44 26 L42 22 L44 20 Q46 18 44 16 L42 12 L40 8 Z" fill="#E53E3E"/>
  <!-- Sweetheart neckline -->
  <path d="M24 8 Q28 14 32 10 Q36 14 40 8" fill="#C53030"/>
  <!-- Waist gather -->
  <ellipse cx="32" cy="24" rx="10" ry="1.5" fill="#C53030" opacity="0.6"/>
</svg>
