<svg xmlns="http://www.w3.org/2000/svg" viewBox="0 0 64 64" width="64" height="64">
  <!-- Dress on mannequin stand - boutique style -->
  <!-- Stand base -->
  <ellipse cx="32" cy="60" rx="10" ry="2" fill="#333"/>
  <line x1="32" y1="52" x2="32" y2="60" stroke="#555" stroke-width="2"/>
  <!-- Mannequin neck -->
  <line x1="32" y1="8" x2="32" y2="14" stroke="#888" stroke-width="2.5"/>
  <circle cx="32" cy="6" r="3" fill="#888"/>
  <!-- Dress -->
  <path d="M24 14 L22 18 L20 22 L22 26 L20 30 L14 50 Q13 53 16 53 L48 53 Q51 53 50 50 L44 30 L42 26 L44 22 L42 18 L40 14 Z" fill="#DC2626"/>
  <!-- Neckline -->
  <path d="M24 14 Q32 18 40 14" fill="#B91C1C"/>
  <!-- Waist -->
  <path d="M22 26 Q32 28 42 26" fill="none" stroke="#991B1B" stroke-width="1.5"/>
  <!-- Skirt highlight -->
  <path d="M30 30 L26 50" fill="none" stroke="#EF4444" stroke-width="0.8" opacity="0.4"/>
  <path d="M34 30 L38 50" fill="none" stroke="#EF4444" stroke-width="0.8" opacity="0.4"/>
</svg>
